<svg width="217" height="217" viewBox="0 0 217 217" fill="none" xmlns="http://www.w3.org/2000/svg">
<path d="M48.9106 38.4859C49.6202 38.1347 50.3919 37.9268 51.1819 37.8739C51.9718 37.8211 52.7644 37.9244 53.5144 38.1779C54.2644 38.4315 54.9571 38.8303 55.5529 39.3516C56.1487 39.8729 56.636 40.5065 56.9869 41.2162L61.7543 50.8836L71.476 40.4568C72.5656 39.2878 74.0747 38.5994 75.6717 38.5429C77.2687 38.4864 78.8228 39.0664 79.9923 40.1554C82.4212 42.4336 82.5538 46.2488 80.2876 48.6837L67.462 62.4435L72.3017 72.2436L80.3238 64.9327C80.9094 64.3999 81.5942 63.9876 82.3392 63.7195C83.0842 63.4514 83.8747 63.3327 84.6655 63.3702C85.4564 63.4077 86.2321 63.6006 86.9484 63.938C87.6647 64.2754 88.3075 64.7506 88.84 65.3365C89.3747 65.9224 89.7885 66.6081 90.0577 67.3542C90.3268 68.1003 90.4461 68.8922 90.4086 69.6845C90.3711 70.4768 90.1775 71.2539 89.8391 71.9713C89.5006 72.6886 89.0239 73.3321 88.4362 73.8649L77.8587 83.4961L84.2233 96.388C84.933 97.8211 85.0444 99.4773 84.5329 100.993C84.0215 102.508 82.9291 103.758 81.496 104.467C80.063 105.177 78.4067 105.288 76.8915 104.777C75.3764 104.266 74.1265 103.173 73.4167 101.74L66.8171 88.366L54.9799 90.7648C53.411 91.0821 51.7803 90.7631 50.4465 89.8781C49.1128 88.9931 48.1852 87.6145 47.8679 86.0456C47.5506 84.4767 47.8696 82.846 48.7546 81.5122C49.6396 80.1785 51.0182 79.2509 52.5871 78.9336L61.2902 77.1737L56.4987 67.4701L38.1764 70.2305C36.5939 70.4679 34.9819 70.0669 33.6951 69.1158C32.4083 68.1646 31.552 66.7412 31.3146 65.1587C31.0772 63.5762 31.4782 61.9643 32.4293 60.6774C33.3805 59.3906 34.8039 58.5343 36.3864 58.2969L50.8875 56.1091L46.1804 46.5682C45.8282 45.8584 45.6195 45.0861 45.5662 44.2955C45.5129 43.5049 45.6159 42.7116 45.8695 41.9609C46.1231 41.2102 46.5222 40.5169 47.0441 39.9206C47.5659 39.3243 48.2002 38.8368 48.9106 38.4859ZM185.123 91.9039C185.91 91.8221 186.706 91.8963 187.465 92.1223C188.224 92.3482 188.931 92.7215 189.545 93.2208C190.16 93.72 190.67 94.3355 191.047 95.032C191.423 95.7285 191.659 96.4924 191.74 97.28C192.946 108.774 187.883 119.64 178.318 126.114C176.991 126.936 175.397 127.213 173.871 126.885C172.344 126.558 171.004 125.652 170.13 124.358C169.257 123.064 168.919 121.482 169.187 119.944C169.455 118.406 170.308 117.031 171.568 116.109C174.419 114.218 176.692 111.576 178.137 108.475C179.581 105.373 180.14 101.933 179.752 98.5337C179.669 97.7456 179.742 96.9488 179.966 96.1889C180.191 95.429 180.564 94.7209 181.063 94.1051C181.561 93.4893 182.177 92.9779 182.873 92.6002C183.57 92.2225 184.334 91.9859 185.123 91.9039Z" fill="#084923"/>
<path fill-rule="evenodd" clip-rule="evenodd" d="M24.7723 216.966C42.6366 216.062 53.7927 211.096 60.7238 203.755C63.1467 207.214 67.3536 209.239 71.9161 208.528C95.8677 204.791 149.243 194.955 209.231 174.21C211.485 173.497 213.453 172.084 214.85 170.177C216.247 168.269 217.001 165.967 217.001 163.602C217.001 161.238 216.247 158.935 214.85 157.028C213.453 155.121 211.485 153.708 209.231 152.995C202.428 150.648 195.724 148.436 189.119 146.359C201.082 140.049 210.262 129.459 213.854 116.019C221.96 85.7326 200.685 59.3822 173.075 67.7659C171.128 53.8674 175.636 41.0659 187.467 34.2252L181.44 23.7743C166.806 32.2302 160.659 46.7013 160.605 61.5218C150.232 53.5842 137.659 53.2828 126.973 58.8699C126.928 57.0804 126.673 55.3023 126.214 53.5721C124.376 46.6952 119.464 41.7832 112.713 38.9565C111.327 32.5919 108.133 24.8652 102.1 19.1033C95.1083 12.4373 85.0672 9.12244 71.9824 12.3409C68.7655 7.94274 64.4454 4.47089 59.4581 2.27568C51.412 -1.18989 41.3046 -1.11757 29.9013 5.44592C17.9858 11.021 12.242 19.2238 10.6569 27.8245C9.58408 33.6707 10.5183 39.2156 12.0552 43.5913C1.94174 52.4571 -1.10193 62.5826 0.350594 72.1235C1.61025 80.3745 6.10645 87.4262 10.5183 92.2117C8.96328 99.3658 10.1747 106.201 14.7493 111.655C15.9306 113.057 17.2766 114.309 18.7874 115.41C18.7604 115.654 18.7483 115.9 18.7513 116.145C18.8899 127.344 19.5287 136.197 21.8251 143.08C14.4238 145.907 7.44446 151.651 1.07987 160.318C0.378391 161.27 0 162.422 0 163.605C0 164.789 0.378391 165.941 1.07987 166.893C7.39022 175.488 14.3093 181.214 21.6443 184.058C19.6915 190.736 18.9321 199.524 18.7573 211.048C18.7385 211.838 18.882 212.624 19.1789 213.357C19.4759 214.09 19.9199 214.754 20.4835 215.309C21.0472 215.864 21.7186 216.297 22.4562 216.582C23.1939 216.867 23.9821 216.998 24.7723 216.966ZM71.8498 163.602C71.8498 169.81 71.6087 176.018 70.6203 181.895V196.516C76.4665 195.594 84.0426 194.316 93.0048 192.605V170.292H105.059V190.212C125.578 185.972 145.93 180.958 166.071 175.18V163.608H178.125V171.624C186.22 169.153 194.519 166.489 202.957 163.608C191.394 159.653 179.738 155.976 168 152.579L167.337 152.639L147.49 146.926C144.364 146.11 141.29 145.326 138.268 144.575V170.292H126.214V141.658C107.822 137.327 89.2787 133.668 70.6203 130.689V145.31C71.6027 151.187 71.8498 157.395 71.8498 163.602ZM58.5661 180.84V146.365C57.7223 141.784 56.3662 137.909 54.2929 134.715C51.1287 129.839 45.0353 124.77 30.9802 122.902C31.2876 130.273 31.9807 135.438 33.2524 139.253L36.9169 150.234L26.1163 154.357C22.3615 155.791 18.2028 158.648 13.8753 163.602C18.1546 168.508 22.2831 171.359 26.0018 172.806L36.3262 176.82L33.2102 187.458C32.0651 191.369 31.3539 196.727 31.0103 204.297C45.0474 202.429 51.1287 197.366 54.2929 192.496C56.3662 189.302 57.7223 185.426 58.5722 180.846M64.2798 120.153C57.3788 114.801 49.1458 110.63 39.0806 109.757C30.9199 109.045 26.2248 106.562 23.9828 103.892C21.9938 101.524 21.0596 97.9435 22.9762 92.3985L24.2901 88.6015L21.3007 85.9255C17.4735 82.5021 13.2365 76.6257 12.2721 70.3093C11.4163 64.668 12.9773 57.556 22.9702 50.3175L27.2796 47.2015L24.7241 42.5305C23.0968 39.5592 21.6503 34.7556 22.5182 30.0183C23.3138 25.7029 26.2007 20.4473 35.2112 16.2886L35.4764 16.1681L35.7235 16.0234C44.3061 11.021 50.4898 11.5513 54.7088 13.3715C59.2773 15.3303 62.4656 19.2178 63.8941 22.1108L66.2506 26.8722L71.2652 25.1424C82.9276 21.1043 89.6538 23.9008 93.7884 27.8486C98.4111 32.2604 100.792 39.1071 101.407 44.2L101.883 48.1779L105.74 49.2808C111.381 50.8901 113.78 53.7107 114.582 56.7002C115.486 60.0693 114.823 65.337 110.724 72.4188C107.641 77.784 105.707 83.7323 105.047 89.8853C103.136 99.3658 104.263 108.919 107.837 117.622C108.368 119.761 108.922 121.829 109.447 123.794L109.658 124.565C109.762 124.943 109.853 125.316 109.929 125.686C93.9451 122.335 80.8784 120.081 71.9282 118.683C69.2832 118.263 66.5808 118.783 64.2798 120.153ZM169.091 140.344C157.053 136.895 144.94 133.715 132.759 130.809C126.893 126.367 122.263 120.494 119.313 113.752C117.505 106.243 116.257 98.9199 116.932 91.9043C117.053 91.3137 117.193 90.723 117.354 90.1324C120.687 77.6804 128.763 70.2852 136.46 67.9708C143.62 65.8191 151.92 67.5308 158.64 76.6739L164.347 84.4488L173.183 80.5795C183.568 76.023 191.602 78.693 196.731 84.1415C202.246 90.0058 205.542 100.445 202.215 112.903C198.376 127.235 185.334 138.036 169.091 140.344Z" fill="#084923"/>
</svg>
